<svg width="117" height="30" viewBox="0 0 117 30" fill="none" xmlns="http://www.w3.org/2000/svg">
<path fill-rule="evenodd" clip-rule="evenodd" d="M19.7615 0.763306C24.1374 2.24077 27.58 5.70536 29.0753 10.0851C29.6745 11.6753 30.0024 13.3994 30.0024 15.2003C30.0024 20.2091 27.4663 24.6233 23.613 27.2193C21.1683 28.97 18.1762 30 14.9445 30C13.9938 30 12.9558 29.835 12.0547 29.6646L12.058 29.6588C12.1086 29.5683 12.7469 28.4281 13.9727 26.2382L19.5103 16.3112L20.2398 15.0427L17.8385 10.8672H14.0055C17.8429 4.13128 19.7615 0.763306 19.7615 0.763306Z" fill="#CBFF01"/>
<path fill-rule="evenodd" clip-rule="evenodd" d="M14.942 0C16.0473 0 17.0325 0.076394 18.0695 0.304978C18.0771 0.306656 16.0084 4.0218 11.8636 11.4504L11.1673 12.6786L10.4921 13.8892L9.76256 15.1576L12.164 19.3332H16.0093L10.5098 28.9286C10.4991 28.9452 10.4898 28.9614 10.4808 28.977L10.4422 29.0445C10.3537 29.199 10.3095 29.2762 10.3095 29.2762C4.28378 27.3431 0 21.6905 0 15C0 6.71574 6.68975 0 14.942 0Z" fill="#00FFA3"/>
<path d="M46.9983 22.7602V7.76294H50.0553V22.7602H46.9983ZM42 10.0736V7.43597H55.0536V10.0736H42Z" fill="white"/>
<path d="M58.6637 22.9782C57.6819 22.9782 56.7968 22.7384 56.0084 22.2589C55.22 21.7793 54.6026 21.1253 54.1563 20.297C53.7101 19.4687 53.4869 18.5386 53.4869 17.5068C53.4869 16.4605 53.7101 15.5232 54.1563 14.6948C54.6026 13.8665 55.22 13.2125 56.0084 12.733C56.7968 12.2534 57.6819 12.0136 58.6637 12.0136C59.4373 12.0136 60.129 12.1662 60.7389 12.4714C61.3488 12.7766 61.8323 13.2053 62.1893 13.7575C62.5612 14.2952 62.7621 14.9055 62.7918 15.5886V19.3815C62.7621 20.079 62.5612 20.6966 62.1893 21.2343C61.8323 21.772 61.3488 22.2007 60.7389 22.5204C60.129 22.8256 59.4373 22.9782 58.6637 22.9782ZM59.1993 20.3406C60.0175 20.3406 60.6794 20.079 61.1852 19.5559C61.691 19.0182 61.9439 18.3279 61.9439 17.485C61.9439 16.9328 61.8249 16.446 61.5869 16.0245C61.3637 15.5886 61.0439 15.2543 60.6274 15.0218C60.2257 14.7747 59.7497 14.6512 59.1993 14.6512C58.6637 14.6512 58.1877 14.7747 57.7712 15.0218C57.3695 15.2543 57.0497 15.5886 56.8117 16.0245C56.5886 16.446 56.477 16.9328 56.477 17.485C56.477 18.0518 56.5886 18.5531 56.8117 18.9891C57.0497 19.4105 57.3695 19.7448 57.7712 19.9918C58.1877 20.2243 58.6637 20.3406 59.1993 20.3406ZM61.7877 22.7602V19.9264L62.2563 17.3542L61.7877 14.8256V12.2316H64.6885V22.7602H61.7877Z" fill="white"/>
<path d="M70.9785 23C70.3686 23 69.7662 22.9201 69.1711 22.7602C68.591 22.6004 68.0554 22.3824 67.5645 22.1063C67.0736 21.8156 66.6497 21.4668 66.2926 21.0599L68.0331 19.3379C68.405 19.7448 68.8364 20.05 69.3273 20.2534C69.8182 20.4569 70.3612 20.5586 70.9562 20.5586C71.4323 20.5586 71.7893 20.4932 72.0273 20.3624C72.2802 20.2316 72.4066 20.0354 72.4066 19.7738C72.4066 19.4832 72.2728 19.2579 72.005 19.0981C71.7521 18.9382 71.4174 18.8074 71.0009 18.7057C70.5843 18.5895 70.1455 18.4659 69.6843 18.3351C69.2381 18.1898 68.8067 18.0082 68.3901 17.7902C67.9736 17.5577 67.6315 17.2452 67.3637 16.8529C67.1108 16.446 66.9844 15.9228 66.9844 15.2834C66.9844 14.6149 67.148 14.0336 67.4753 13.5395C67.8174 13.0454 68.3009 12.6603 68.9257 12.3842C69.5505 12.1081 70.2868 11.97 71.1347 11.97C72.0273 11.97 72.8306 12.1226 73.5446 12.4278C74.2736 12.733 74.876 13.1907 75.3521 13.8011L73.5893 15.5232C73.262 15.1308 72.8901 14.8474 72.4736 14.673C72.0719 14.4986 71.6331 14.4114 71.1571 14.4114C70.7257 14.4114 70.391 14.4768 70.1529 14.6076C69.9298 14.7384 69.8182 14.9201 69.8182 15.1526C69.8182 15.4142 69.9447 15.6176 70.1976 15.7629C70.4653 15.9083 70.8075 16.0391 71.224 16.1553C71.6405 16.257 72.0719 16.3806 72.5182 16.5259C72.9794 16.6567 73.4108 16.8456 73.8124 17.0926C74.2289 17.3397 74.5636 17.6667 74.8165 18.0736C75.0843 18.4805 75.2182 19.0036 75.2182 19.6431C75.2182 20.6748 74.8388 21.4959 74.0802 22.1063C73.3215 22.7021 72.2876 23 70.9785 23Z" fill="white"/>
<path d="M84.062 22.7602L79.8893 17.3324L84.0396 12.2316H87.409L82.5446 17.9864L82.6562 16.5913L87.6322 22.7602H84.062ZM77.1893 22.7602V7H80.1124V22.7602H77.1893Z" fill="white"/>
<path d="M96.6318 23C95.4864 23 94.4153 22.7965 93.4186 22.3896C92.4368 21.9827 91.574 21.4232 90.8302 20.7112C90.1013 19.9846 89.5286 19.1417 89.112 18.1826C88.6955 17.2089 88.4873 16.1698 88.4873 15.0654C88.4873 13.9609 88.6881 12.9364 89.0897 11.9918C89.5063 11.0327 90.079 10.1971 90.8079 9.48501C91.5517 8.7584 92.4145 8.19891 93.3963 7.80654C94.3781 7.39964 95.4417 7.19619 96.5872 7.19619C97.7475 7.19619 98.8186 7.39964 99.8004 7.80654C100.782 8.19891 101.638 8.7584 102.366 9.48501C103.11 10.1971 103.69 11.0327 104.107 11.9918C104.523 12.951 104.732 13.9827 104.732 15.0872C104.732 16.1916 104.523 17.2234 104.107 18.1826C103.69 19.1417 103.11 19.9846 102.366 20.7112C101.638 21.4232 100.782 21.9827 99.8004 22.3896C98.8334 22.7965 97.7773 23 96.6318 23ZM96.5872 20.2316C97.5987 20.2316 98.4764 20.0136 99.2202 19.5777C99.964 19.1417 100.544 18.5386 100.961 17.7684C101.392 16.9982 101.608 16.0972 101.608 15.0654C101.608 14.3097 101.489 13.6194 101.251 12.9946C101.013 12.3697 100.671 11.832 100.224 11.3815C99.7781 10.9164 99.25 10.5604 98.6401 10.3134C98.0301 10.0663 97.3459 9.94278 96.5872 9.94278C95.6054 9.94278 94.7351 10.1608 93.9765 10.5967C93.2327 11.0182 92.6451 11.614 92.2137 12.3842C91.7971 13.1544 91.5889 14.0481 91.5889 15.0654C91.5889 15.8356 91.7079 16.5404 91.9459 17.1798C92.1988 17.8193 92.5409 18.3642 92.9723 18.8147C93.4186 19.2652 93.9467 19.614 94.5566 19.861C95.1814 20.1081 95.8583 20.2316 96.5872 20.2316Z" fill="white"/>
<path d="M114.077 22.7602V16.7221C114.077 16.0972 113.876 15.5886 113.474 15.1962C113.073 14.8038 112.552 14.6076 111.912 14.6076C111.496 14.6076 111.124 14.6948 110.797 14.8692C110.469 15.0436 110.209 15.2906 110.016 15.6104C109.837 15.9301 109.748 16.3006 109.748 16.7221L108.61 16.1553C108.61 15.327 108.789 14.6076 109.146 13.9973C109.517 13.3724 110.023 12.8856 110.663 12.5368C111.317 12.188 112.054 12.0136 112.872 12.0136C113.66 12.0136 114.367 12.2098 114.992 12.6022C115.617 12.98 116.107 13.4814 116.464 14.1063C116.821 14.7166 117 15.3778 117 16.0899V22.7602H114.077ZM106.825 22.7602V12.2316H109.748V22.7602H106.825Z" fill="white"/>
</svg>
