<svg width="160" height="41" viewBox="0 0 160 41" fill="none" xmlns="http://www.w3.org/2000/svg">
<path fill-rule="evenodd" clip-rule="evenodd" d="M26.7208 1.03516C32.6383 3.04091 37.2937 7.74434 39.3158 13.6901C40.1261 15.8489 40.5695 18.1895 40.5695 20.6344C40.5695 27.4342 37.14 33.4267 31.9291 36.951C28.6232 39.3277 24.577 40.726 20.2067 40.726C18.9211 40.726 17.5174 40.502 16.2988 40.2707L16.3033 40.2627C16.3717 40.1399 17.2349 38.592 18.8926 35.6191L26.3811 22.1425L27.3676 20.4204L24.1202 14.7519H18.9369C24.1262 5.60742 26.7208 1.03516 26.7208 1.03516Z" fill="#CBFF01"/>
<path fill-rule="evenodd" clip-rule="evenodd" d="M20.206 0C21.7007 0 23.033 0.10371 24.4354 0.414029C24.4456 0.416306 21.6482 5.45986 16.0431 15.5447L15.1016 17.2121L14.1885 18.8556L13.2019 20.5775L16.4493 26.2461H21.6493L14.2123 39.2726C14.1979 39.295 14.1853 39.3171 14.1732 39.3383L14.1209 39.4299C14.0013 39.6396 13.9415 39.7444 13.9415 39.7444C5.79295 37.1201 0 29.4463 0 20.3636C0 9.11708 9.04655 0 20.206 0Z" fill="#00FFA3"/>
<path d="M60.0014 32.7277V10.7118H64.3684V32.7277H60.0014ZM52.8613 14.1038V10.2318H71.5085V14.1038H52.8613Z" fill="white"/>
<path d="M76.6656 33.0477C75.2631 33.0477 73.9987 32.6957 72.8724 31.9917C71.7462 31.2877 70.8643 30.3277 70.2268 29.1117C69.5893 27.8957 69.2705 26.5304 69.2705 25.0157C69.2705 23.4797 69.5893 22.1038 70.2268 20.8878C70.8643 19.6718 71.7462 18.7118 72.8724 18.0078C73.9987 17.3038 75.2631 16.9518 76.6656 16.9518C77.7707 16.9518 78.7588 17.1758 79.6301 17.6238C80.5013 18.0718 81.192 18.7011 81.702 19.5118C82.2332 20.3011 82.5201 21.1971 82.5626 22.1998V27.7677C82.5201 28.7917 82.2332 29.6984 81.702 30.4877C81.192 31.2771 80.5013 31.9064 79.6301 32.3757C78.7588 32.8237 77.7707 33.0477 76.6656 33.0477ZM77.4306 29.1757C78.5994 29.1757 79.5451 28.7917 80.2676 28.0237C80.9901 27.2344 81.3513 26.2211 81.3513 24.9837C81.3513 24.1731 81.1813 23.4584 80.8413 22.8397C80.5226 22.1998 80.0657 21.7091 79.4707 21.3678C78.8969 21.0051 78.2169 20.8238 77.4306 20.8238C76.6656 20.8238 75.9856 21.0051 75.3906 21.3678C74.8169 21.7091 74.36 22.1998 74.02 22.8397C73.7012 23.4584 73.5418 24.1731 73.5418 24.9837C73.5418 25.8157 73.7012 26.5517 74.02 27.1917C74.36 27.8104 74.8169 28.3011 75.3906 28.6637C75.9856 29.0051 76.6656 29.1757 77.4306 29.1757ZM81.1282 32.7277V28.5677L81.7976 24.7917L81.1282 21.0798V17.2718H85.272V32.7277H81.1282Z" fill="white"/>
<path d="M94.2574 33.0797C93.3862 33.0797 92.5255 32.9624 91.6755 32.7277C90.8468 32.493 90.0817 32.173 89.3805 31.7677C88.6792 31.3411 88.0736 30.8291 87.5636 30.2317L90.0499 27.7037C90.5811 28.3011 91.1974 28.7491 91.8987 29.0477C92.5999 29.3464 93.3756 29.4957 94.2256 29.4957C94.9056 29.4957 95.4156 29.3997 95.7556 29.2077C96.1169 29.0157 96.2975 28.7277 96.2975 28.3437C96.2975 27.9171 96.1062 27.5864 95.7237 27.3517C95.3625 27.1171 94.8843 26.9251 94.2893 26.7757C93.6943 26.6051 93.0674 26.4237 92.4087 26.2317C91.7712 26.0184 91.1549 25.7517 90.5599 25.4317C89.9649 25.0904 89.4761 24.6317 89.0936 24.0557C88.7324 23.4584 88.5517 22.6904 88.5517 21.7518C88.5517 20.7704 88.7855 19.9171 89.253 19.1918C89.7417 18.4664 90.4324 17.9011 91.3249 17.4958C92.2174 17.0904 93.2693 16.8878 94.4806 16.8878C95.7556 16.8878 96.9031 17.1118 97.9231 17.5598C98.9644 18.0078 99.825 18.6798 100.505 19.5758L97.9869 22.1038C97.5194 21.5278 96.9881 21.1118 96.3931 20.8558C95.8193 20.5998 95.1925 20.4718 94.5125 20.4718C93.8962 20.4718 93.4181 20.5678 93.0781 20.7598C92.7593 20.9518 92.5999 21.2184 92.5999 21.5598C92.5999 21.9438 92.7805 22.2424 93.1418 22.4558C93.5243 22.6691 94.0131 22.8611 94.6081 23.0317C95.2031 23.1811 95.8193 23.3624 96.4569 23.5757C97.1156 23.7677 97.7319 24.0451 98.3056 24.4077C98.9007 24.7704 99.3788 25.2504 99.74 25.8477C100.123 26.4451 100.314 27.2131 100.314 28.1517C100.314 29.6664 99.7719 30.8717 98.6881 31.7677C97.6044 32.6424 96.1275 33.0797 94.2574 33.0797Z" fill="white"/>
<path d="M112.947 32.7277L106.986 24.7597L112.915 17.2718H117.729L110.78 25.7197L110.939 23.6717L118.047 32.7277H112.947ZM103.13 32.7277V9.5918H107.305V32.7277H103.13Z" fill="white"/>
<path d="M130.903 33.0797C129.267 33.0797 127.737 32.781 126.313 32.1837C124.911 31.5864 123.678 30.7651 122.616 29.7197C121.574 28.6531 120.756 27.4157 120.161 26.0077C119.566 24.5784 119.269 23.0531 119.269 21.4318C119.269 19.8104 119.556 18.3064 120.129 16.9198C120.724 15.5118 121.543 14.2851 122.584 13.2398C123.646 12.1731 124.879 11.3518 126.281 10.7758C127.684 10.1785 129.203 9.8798 130.84 9.8798C132.497 9.8798 134.027 10.1785 135.43 10.7758C136.832 11.3518 138.054 12.1731 139.095 13.2398C140.158 14.2851 140.987 15.5118 141.582 16.9198C142.177 18.3278 142.474 19.8424 142.474 21.4638C142.474 23.0851 142.177 24.5997 141.582 26.0077C140.987 27.4157 140.158 28.6531 139.095 29.7197C138.054 30.7651 136.832 31.5864 135.43 32.1837C134.048 32.781 132.54 33.0797 130.903 33.0797ZM130.84 29.0157C132.285 29.0157 133.538 28.6957 134.601 28.0557C135.663 27.4157 136.492 26.5304 137.087 25.3997C137.703 24.2691 138.012 22.9464 138.012 21.4318C138.012 20.3224 137.842 19.3091 137.502 18.3918C137.162 17.4744 136.673 16.6851 136.035 16.0238C135.398 15.3411 134.643 14.8184 133.772 14.4558C132.901 14.0931 131.923 13.9118 130.84 13.9118C129.437 13.9118 128.194 14.2318 127.11 14.8718C126.048 15.4904 125.208 16.3651 124.592 17.4958C123.997 18.6264 123.699 19.9384 123.699 21.4318C123.699 22.5624 123.869 23.5971 124.209 24.5357C124.571 25.4744 125.06 26.2744 125.676 26.9357C126.313 27.5971 127.068 28.1091 127.939 28.4717C128.831 28.8344 129.798 29.0157 130.84 29.0157Z" fill="white"/>
<path d="M155.824 32.7277V23.8637C155.824 22.9464 155.537 22.1998 154.963 21.6238C154.389 21.0478 153.646 20.7598 152.732 20.7598C152.137 20.7598 151.606 20.8878 151.138 21.1438C150.671 21.3998 150.299 21.7624 150.022 22.2318C149.767 22.7011 149.64 23.2451 149.64 23.8637L148.014 23.0317C148.014 21.8158 148.269 20.7598 148.779 19.8638C149.311 18.9464 150.033 18.2318 150.947 17.7198C151.882 17.2078 152.934 16.9518 154.103 16.9518C155.229 16.9518 156.238 17.2398 157.131 17.8158C158.023 18.3704 158.724 19.1064 159.234 20.0238C159.744 20.9198 159.999 21.8904 159.999 22.9357V32.7277H155.824ZM145.464 32.7277V17.2718H149.64V32.7277H145.464Z" fill="white"/>
</svg>
